<!-- <svg width="458" height="491" viewBox="0 0 458 491" fill="none" xmlns="http://www.w3.org/2000/svg">
<path d="M303.457 452.526C234.219 490.701 144.538 505.671 88.8957 470.553C33.3422 435.103 12.1591 349.654 3.7109 269.744C-4.82601 190.165 -0.628185 116.126 37.6108 68.9353C75.9385 21.4138 148.816 0.168287 224.933 0C300.63 0.073637 379.744 20.5629 421.29 72.4682C462.748 124.704 466.727 208.026 444.153 280.332C421.822 353.059 372.696 414.35 303.457 452.526Z" fill="#32334C"/>
</svg> -->

<!-- <svg width="200" height="200" viewBox="0 0 500 400" fill="none" xmlns="http://www.w3.org/2000/svg"> <path fill-rule="evenodd" clip-rule="evenodd" d="M169.909 139.373C161.736 129.94 160.408 115.21 165.832 103.97C170.425 94.452 173 83.7766 173 72.5C173 32.4594 140.541 0 100.5 0C60.4594 0 28 32.4594 28 72.5C28 83.522 30.4596 93.9695 34.8598 103.324C40.1723 114.617 38.6997 129.334 30.4352 138.686C20.1832 150.288 12.7935 164.478 9.37176 180.151C7.01575 190.942 16.1944 200 27.2401 200H172.503C183.549 200 192.728 190.943 190.372 180.151C187.017 164.786 179.849 150.845 169.909 139.373Z" fill="url(#paint0_linear_133_29)"/> <defs> <linearGradient id="paint0_linear_133_29" x1="99.8717" y1="0" x2="99.8717" y2="200" gradientUnits="userSpaceOnUse"> <stop stop-color="#B8DBFC"/> <stop offset="1" stop-color="#F8FBFE"/> </linearGradient> </defs> </svg> -->

<svg viewBox="0 0 500 500" xmlns="http://www.w3.org/2000/svg" version="1.1" fill="#2ebc4f"><path d="
M 0 250
C 0 52.49999999999999, 52.49999999999999 0, 250 0
S 500 52.49999999999999, 500 250, 447.5 500
250 500, 0 447.5, 0 250
" transform="
rotate(
0,
250,
250
)
translate(
0,
0
)
"></path></svg>